<svg xmlns="http://www.w3.org/2000/svg" data-name="Layer 1" viewBox="72.76 72.74 616.24 109.45"><g fill="currentColor"><path d="M202.81 86.77h30.05c25.37 0 37.56 14.16 37.56 36.33s-13.67 37.56-37.31 37.56h-30.29V86.77Zm14.03 11.83v50.24h14.9c17.36 0 24.75-9.73 24.75-25.74S248.61 98.59 231 98.59h-14.16ZM317.21 144.78h-.12c-2.59 12.44-9.97 17.49-19.7 17.49-13.92 0-19.21-9.24-19.21-21.67v-37.81h13.3v34.23c0 7.02 3.08 13.18 12.07 13.18 8.5 0 13.67-4.93 13.67-13.18v-34.23h13.3v57.88h-13.3v-15.89ZM377.8 146.13h-.25c-2.71 10.34-9.73 15.76-19.7 15.76-10.71 0-18.23-5.42-18.23-16.5s6.4-18.23 20.93-18.23h17.24v-2.34c0-7.88-3.2-12.19-11.21-12.19-7.14 0-11.21 3.2-12.56 11.58l-12.68-1.72c1.72-12.93 9.36-20.93 25.74-20.93s23.89 8.37 23.89 23.15v35.96h-13.18v-14.53Zm0-7.27v-1.85h-15.27c-6.4 0-9.85 2.34-9.85 6.28s2.59 7.76 10.1 7.76c9.11 0 15.02-5.17 15.02-12.19ZM415.12 160.66h-13.3V85.17h13.3v75.49ZM426.45 86.77h53.08v13.3h-39.04v16.62h35.59v13.05h-35.59v17.61h39.16v13.3h-53.2V86.76ZM503.17 160.66h-13.3v-57.88h13.3v15.89h.12c2.59-12.31 9.98-17.36 19.7-17.36 13.92 0 19.21 9.11 19.21 21.67v37.68h-13.3v-34.23c0-7.02-3.08-13.18-12.07-13.18-8.5 0-13.67 4.93-13.67 13.18v34.23ZM556.74 113.99h-7.88v-11.21h7.88V87.39h13.18v15.39h17.12v11.21h-17.12v26.85c0 5.66 2.22 8.5 8 8.5 2.96 0 5.66-.74 8.25-1.35l1.6 12.19c-4.19 1.35-7.27 2.09-12.93 2.09-12.68 0-18.1-8.37-18.1-19.21V114ZM595.16 160.66v-57.88h13.3v18.96h.25c2.59-15.02 7.76-18.96 16.5-18.96h3.32v14.9h-5.66c-10.34 0-14.41 3.57-14.41 13.67v29.31h-13.3ZM630.01 181.47l1.85-12.44c2.59.49 4.93.86 7.39.86 6.65 0 9.98-1.48 13.67-10.22l-23.4-56.89h14.53l7.51 20.93c2.34 6.65 5.54 15.39 8.25 23.27h.37c2.71-8.13 5.66-16.38 7.76-23.03l6.77-21.18H689l-23.77 58.49c-5.91 14.53-13.05 20.93-26.35 20.93-3.69 0-6.16-.37-8.87-.74Z"/></g><path fill="currentColor" d="M144.93 114.94 166 93.87l-12.41-12.41-21.07 21.07V72.74h-17.55v42.2H72.76v17.55h29.8l-21.07 21.07 12.41 12.41 21.07-21.07v29.8h17.55v-42.21h-17.55v-17.55h17.55v17.55h42.21v-17.55h-29.8z"/></svg>